<svg width="78" height="21" viewBox="0 0 78 21" fill="none" xmlns="http://www.w3.org/2000/svg">
<path d="M8.41208 1.92749L6.74175 8.67144H7.68131C9.87362 8.67144 11.4604 6.79232 11.4604 4.22419C11.4604 2.80441 10.7923 1.92749 9.33076 1.92749H8.41208ZM6.5956 9.21429L5.53077 13.4945C5.38461 14.0374 5.32197 14.4549 5.32197 14.7681C5.32197 15.2901 5.48901 15.6033 5.94835 15.9582V16H0.102199V15.9582C1.1044 15.3945 1.3967 14.8725 1.73077 13.4945L4.13187 3.89012C4.27802 3.34726 4.36154 2.92968 4.36154 2.6165C4.36154 2.09452 4.17362 1.78133 3.73516 1.42639V1.38463H10.7088C13.3813 1.38463 15.3022 2.38683 15.3022 4.53737C15.3022 7.50221 12.4835 8.92198 9.72746 8.98462C11.7527 9.13078 12.6714 10.1121 12.7549 11.7407C12.7967 12.2418 12.7967 13.2857 12.8385 13.6615C12.922 14.8308 13.1516 15.3945 14.0494 15.9582V16H9.41428C9.18461 15.4989 9.10109 14.9143 9.05933 14.2253C9.03845 13.6407 9.20549 11.678 9.16373 10.9681C9.12197 9.88242 8.72527 9.21429 7.43076 9.21429H6.5956ZM18.9642 16.2088C16.6257 16.2088 14.9972 14.7473 14.9972 12.2C14.9972 8.81759 17.8785 5.43517 21.6367 5.43517C23.4949 5.43517 24.5807 6.35386 24.5807 7.64836C24.5807 9.96594 21.9081 10.9055 18.5884 11.0099C18.5466 11.3857 18.5048 11.7407 18.5048 12.0956C18.5048 13.8703 19.4235 14.6846 20.6763 14.6846C21.7411 14.6846 22.5345 14.2253 23.3906 13.1813H23.4949C22.5763 15.1648 21.0103 16.2088 18.9642 16.2088ZM21.5741 5.811C20.4675 5.811 19.0686 8.37913 18.6301 10.7385C20.718 10.3418 22.1169 8.42089 22.1169 6.6044C22.1169 6.10331 21.9499 5.811 21.5741 5.811ZM35.2525 9.77803L34.2294 13.9956C33.9997 14.9352 34.6261 15.3736 35.7327 14.8516L35.7536 14.8934C34.8558 15.8538 33.958 16.2088 32.914 16.2088C31.4943 16.2088 30.7217 15.2901 30.7426 14.0582C30.7426 13.933 30.7635 13.7868 30.8052 13.6407C30.0327 15.1231 29.0514 16.1879 27.4019 16.1879C25.6899 16.1879 24.5833 14.8099 24.5833 12.722C24.5833 9.02638 27.2349 5.45605 30.4712 5.45605C31.9536 5.45605 32.8096 6.22858 33.1646 7.39781C34.0206 6.29122 35.1272 5.7066 36.4635 5.47693C36.0041 6.72968 35.6283 8.27473 35.2525 9.77803ZM29.0932 14.7264C29.9492 14.7264 30.7844 13.5363 31.2019 11.9286L31.9118 9.17253C32.0997 8.46264 32.2041 7.87803 32.2041 7.43957C32.2041 6.58352 31.8283 6.14506 31.2646 6.14506C29.6987 6.14506 28.1745 10.8011 28.1745 13.2231C28.1745 14.2044 28.4668 14.7264 29.0932 14.7264ZM43.1975 5.45605C44.8678 5.45605 45.9953 6.3121 45.9953 7.711C45.9953 9.0055 44.9931 9.84066 43.8239 9.84066C43.114 9.84066 42.3832 9.42308 42.3206 8.65056C42.425 8.71319 42.592 8.73407 42.7381 8.73407C43.5315 8.73407 44.0744 7.85715 44.0744 6.87583C44.0744 6.24946 43.8656 5.811 43.3019 5.811C41.8403 5.811 40.1283 9.23517 40.1283 11.9495C40.1283 13.7868 40.9843 14.6846 42.1953 14.6846C43.3019 14.6846 44.0118 14.1835 44.7425 13.1396H44.8678C44.0953 15.144 42.5085 16.2088 40.525 16.2088C38.2909 16.2088 36.6206 14.7264 36.6206 12.1582C36.6206 8.71319 39.4392 5.45605 43.1975 5.45605ZM51.578 6.18682L49.7824 13.5363C49.7406 13.6824 49.7198 13.8077 49.7198 13.933C49.7198 14.5593 50.1373 14.9143 50.7219 14.9143C51.1604 14.9143 51.7241 14.6846 52.2461 14.2044L52.267 14.267C51.3692 15.5407 50.2835 16.2088 48.7384 16.2088C47.089 16.2088 46.2329 15.2901 46.2329 13.9538C46.2329 13.6824 46.2747 13.3692 46.3582 13.0769L48.0703 6.18682H47.1307L47.1934 5.91539C49.4483 5.37254 51.0978 4.14067 52.434 2.03188H52.6219L51.7033 5.66484H54L53.7703 6.18682H51.578ZM55.7127 2.57474C55.7127 1.42639 56.6105 0.507706 57.8006 0.507706C58.9072 0.507706 59.6589 1.30111 59.6589 2.34507C59.6589 3.49342 58.7611 4.4121 57.5709 4.4121C56.4644 4.4121 55.7127 3.61869 55.7127 2.57474ZM58.8237 5.66484L56.7567 13.9956C56.7149 14.1418 56.694 14.267 56.694 14.3923C56.694 14.8308 56.9237 15.0813 57.3622 15.0813C57.5918 15.0813 57.8633 15.0187 58.1764 14.8516L58.1973 14.8934C57.3622 15.8747 56.4017 16.2088 55.4622 16.2088C53.9797 16.2088 53.2699 15.3319 53.2699 14.1835C53.2699 13.9121 53.3116 13.6407 53.3742 13.3692L54.7314 7.91979C54.8567 7.35605 54.9611 7.00111 54.9611 6.72968C54.9611 6.27034 54.7523 6.01979 54.3556 5.7066V5.66484H58.8237ZM65.1577 4.20331L64.8863 5.66484H66.8489L66.6193 6.18682H64.761L62.5061 15.3527C61.5665 19.1945 59.7083 20.5934 56.5973 20.6352V20.5934C57.7456 19.9253 58.4138 18.0253 59.3951 13.8495L61.1489 6.18682H60.0632L60.1259 5.95715L61.316 5.49781L61.5039 4.9132C62.4226 1.80221 64.4478 0.19452 67.1204 0.19452C68.7072 0.19452 69.8555 0.88353 69.8555 2.07364C69.8555 3.30551 68.8533 3.95276 67.7676 3.95276C67.0786 3.95276 66.5775 3.68133 66.4105 3.30551C67.2039 3.18023 67.8094 2.47034 67.8094 1.42639C67.8094 0.88353 67.5797 0.528585 67.0995 0.528585C66.2226 0.528585 65.6797 1.55166 65.1577 4.20331ZM77.0771 5.66484L74.9892 13.933C73.9452 18.1923 72.0035 20.7813 68.2452 20.7813C66.1364 20.7813 64.2991 19.9462 64.2991 18.2967C64.2991 17.2527 65.176 16.522 66.2826 16.522C67.0969 16.522 67.7232 16.8352 68.1199 17.3363C67.4727 17.3989 66.9716 18.0253 66.9716 18.944C66.9716 19.8 67.4101 20.4264 68.2452 20.4264C69.6441 20.4264 70.3331 18.6516 71.0848 15.6659L71.7112 13.1187C70.8551 14.8308 69.8529 15.9582 68.1199 15.9582C66.554 15.9582 65.8024 14.9143 65.8024 13.5989C65.8024 13.2648 65.865 12.9099 65.9485 12.5758L67.0969 7.91979C67.2221 7.35605 67.3057 7.00111 67.3057 6.72968C67.3057 6.27034 67.1178 6.01979 66.721 5.7066V5.66484H71.1892L69.3936 12.7846C69.3309 13.0352 69.2892 13.2648 69.2892 13.4736C69.2892 13.9121 69.4771 14.2044 69.9364 14.2044C70.7925 14.2044 71.6694 13.2857 72.1705 11.2604L73.5485 5.66484H77.0771Z" fill="url(#paint0_linear_1788_15567)"/>
<defs>
<linearGradient id="paint0_linear_1788_15567" x1="55.3506" y1="10.5" x2="76.4227" y2="11.3631" gradientUnits="userSpaceOnUse">
<stop offset="0.254373" stop-color="#287DE6"/>
<stop offset="1" stop-color="#17CBCC"/>
</linearGradient>
</defs>
</svg>
