<svg width="50" height="50" viewBox="0 0 50 50" fill="none" xmlns="http://www.w3.org/2000/svg">
<path fill-rule="evenodd" clip-rule="evenodd" d="M25.0013 45.8334C15.1804 45.8334 10.2699 45.8334 7.21895 42.7823C4.16797 39.7315 4.16797 34.8209 4.16797 25C4.16797 15.1791 4.16797 10.2686 7.21895 7.21767C10.2699 4.16669 15.1804 4.16669 25.0013 4.16669C34.8221 4.16669 39.7328 4.16669 42.7836 7.21767C45.8346 10.2686 45.8346 15.1791 45.8346 25C45.8346 34.8209 45.8346 39.7315 42.7836 42.7823C39.7328 45.8334 34.8221 45.8334 25.0013 45.8334ZM25.0013 17.1875C25.8642 17.1875 26.5638 17.8871 26.5638 18.75V23.4375H31.2513C32.1142 23.4375 32.8138 24.1371 32.8138 25C32.8138 25.8629 32.1142 26.5625 31.2513 26.5625H26.5638V31.25C26.5638 32.1129 25.8642 32.8125 25.0013 32.8125C24.1384 32.8125 23.4388 32.1129 23.4388 31.25V26.5625H18.7513C17.8884 26.5625 17.1888 25.8629 17.1888 25C17.1888 24.1371 17.8884 23.4375 18.7513 23.4375H23.4388V18.75C23.4388 17.8871 24.1384 17.1875 25.0013 17.1875Z" fill="#454545"/>
</svg>
