<svg width="42" height="42" viewBox="0 0 42 42" fill="none" xmlns="http://www.w3.org/2000/svg">
<path fill-rule="evenodd" clip-rule="evenodd" d="M20.8333 41.6667C11.0124 41.6667 6.10194 41.6667 3.05098 38.6156C-2.48353e-07 35.5648 0 30.6542 0 20.8333C0 11.0124 -2.48353e-07 6.10194 3.05098 3.05098C6.10194 -2.48353e-07 11.0124 0 20.8333 0C30.6542 0 35.5648 -2.48353e-07 38.6156 3.05098C41.6667 6.10194 41.6667 11.0124 41.6667 20.8333C41.6667 30.6542 41.6667 35.5648 38.6156 38.6156C35.5648 41.6667 30.6542 41.6667 20.8333 41.6667ZM20.8333 13.0208C21.6963 13.0208 22.3958 13.7204 22.3958 14.5833V19.2708H27.0833C27.9463 19.2708 28.6458 19.9704 28.6458 20.8333C28.6458 21.6963 27.9463 22.3958 27.0833 22.3958H22.3958V27.0833C22.3958 27.9463 21.6963 28.6458 20.8333 28.6458C19.9704 28.6458 19.2708 27.9463 19.2708 27.0833V22.3958H14.5833C13.7204 22.3958 13.0208 21.6963 13.0208 20.8333C13.0208 19.9704 13.7204 19.2708 14.5833 19.2708H19.2708V14.5833C19.2708 13.7204 19.9704 13.0208 20.8333 13.0208Z" fill="#C8C8C8"/>
</svg>
