<svg width="84" height="23" viewBox="0 0 84 23" fill="none" xmlns="http://www.w3.org/2000/svg">
<path d="M10.8309 12.0748C10.8309 11.258 10.9914 10.5335 11.3123 9.90146C11.6429 9.2694 12.0902 8.7832 12.6542 8.44286C13.2182 8.10252 13.8454 7.93235 14.5358 7.93235C15.0609 7.93235 15.5617 8.04904 16.0382 8.28241C16.5146 8.50607 16.8939 8.80751 17.1759 9.18675V5.35062H19.2471V16.1443H17.1759V14.9482C16.923 15.3469 16.5681 15.6678 16.1111 15.9109C15.6541 16.154 15.1241 16.2756 14.5212 16.2756C13.8405 16.2756 13.2182 16.1005 12.6542 15.7505C12.0902 15.4004 11.6429 14.9093 11.3123 14.2773C10.9914 13.6355 10.8309 12.9013 10.8309 12.0748ZM17.1905 12.104C17.1905 11.608 17.0932 11.185 16.8987 10.835C16.7043 10.4752 16.4417 10.2029 16.1111 10.0182C15.7805 9.82367 15.4255 9.72643 15.0463 9.72643C14.6671 9.72643 14.317 9.81881 13.9961 10.0036C13.6752 10.1883 13.4127 10.4606 13.2085 10.8204C13.014 11.1704 12.9168 11.5886 12.9168 12.0748C12.9168 12.561 13.014 12.9888 13.2085 13.3584C13.4127 13.7181 13.6752 13.9953 13.9961 14.1898C14.3267 14.3842 14.6768 14.4815 15.0463 14.4815C15.4255 14.4815 15.7805 14.3891 16.1111 14.2043C16.4417 14.0099 16.7043 13.7376 16.8987 13.3875C17.0932 13.0277 17.1905 12.5999 17.1905 12.104ZM28.4616 11.9289C28.4616 12.2206 28.4421 12.4832 28.4032 12.7166H22.4959C22.5445 13.3 22.7487 13.757 23.1085 14.0877C23.4683 14.4183 23.9107 14.5836 24.4358 14.5836C25.1943 14.5836 25.734 14.2578 26.0549 13.6063H28.2574C28.024 14.3842 27.5767 15.026 26.9155 15.5317C26.2542 16.0276 25.4423 16.2756 24.4796 16.2756C23.7017 16.2756 23.0016 16.1054 22.3792 15.7651C21.7666 15.415 21.2853 14.9239 20.9352 14.2919C20.5949 13.6598 20.4247 12.9305 20.4247 12.104C20.4247 11.2677 20.5949 10.5335 20.9352 9.90146C21.2755 9.2694 21.752 8.7832 22.3646 8.44286C22.9772 8.10252 23.6822 7.93235 24.4796 7.93235C25.2478 7.93235 25.9333 8.09766 26.5362 8.42827C27.1488 8.75889 27.6205 9.23051 27.9511 9.84312C28.2914 10.446 28.4616 11.1413 28.4616 11.9289ZM26.3466 11.3455C26.3369 10.8204 26.1473 10.4023 25.7778 10.0911C25.4082 9.77019 24.9561 9.60974 24.4213 9.60974C23.9156 9.60974 23.4878 9.76533 23.1377 10.0765C22.7973 10.3779 22.5883 10.8009 22.5105 11.3455H26.3466ZM33.0298 14.2627L35.0718 8.06362H37.2451L34.255 16.1443H31.7754L28.7998 8.06362H30.9877L33.0298 14.2627ZM41.8052 9.74102H40.3903V16.1443H38.3191V9.74102H37.4002V8.06362H38.3191V7.65522C38.3191 6.66336 38.6011 5.93406 39.1651 5.46731C39.7291 5.00056 40.58 4.78177 41.7177 4.81094V6.53209C41.2217 6.52237 40.8765 6.60502 40.6821 6.78005C40.4876 6.95509 40.3903 7.27112 40.3903 7.72815V8.06362H41.8052V9.74102ZM50.5674 8.06362L45.5644 19.9658H43.3911L45.1414 15.9401L41.9033 8.06362H44.1933L46.2791 13.7084L48.3941 8.06362H50.5674Z" fill="#F4F4F4"/>
<path d="M52.2808 16.2464C51.9113 16.2464 51.605 16.1346 51.3619 15.9109C51.1285 15.6775 51.0118 15.3907 51.0118 15.0503C51.0118 14.71 51.1285 14.428 51.3619 14.2043C51.605 13.971 51.9113 13.8543 52.2808 13.8543C52.6406 13.8543 52.9372 13.971 53.1706 14.2043C53.4039 14.428 53.5206 14.71 53.5206 15.0503C53.5206 15.3907 53.4039 15.6775 53.1706 15.9109C52.9372 16.1346 52.6406 16.2464 52.2808 16.2464ZM54.3486 12.0748C54.3486 11.258 54.5091 10.5335 54.8299 9.90146C55.1606 9.2694 55.603 8.7832 56.1573 8.44286C56.7213 8.10252 57.3485 7.93235 58.0389 7.93235C58.6418 7.93235 59.1669 8.0539 59.6142 8.297C60.0712 8.5401 60.4358 8.84641 60.7081 9.21592V8.06362H62.7647V16.1443H60.7081V14.9628C60.4456 15.3421 60.0809 15.6581 59.6142 15.9109C59.1571 16.154 58.6272 16.2756 58.0243 16.2756C57.3436 16.2756 56.7213 16.1005 56.1573 15.7505C55.603 15.4004 55.1606 14.9093 54.8299 14.2773C54.5091 13.6355 54.3486 12.9013 54.3486 12.0748ZM60.7081 12.104C60.7081 11.608 60.6109 11.185 60.4164 10.835C60.2219 10.4752 59.9594 10.2029 59.6288 10.0182C59.2981 9.82367 58.9432 9.72643 58.564 9.72643C58.1847 9.72643 57.8347 9.81881 57.5138 10.0036C57.1929 10.1883 56.9303 10.4606 56.7261 10.8204C56.5316 11.1704 56.4344 11.5886 56.4344 12.0748C56.4344 12.561 56.5316 12.9888 56.7261 13.3584C56.9303 13.7181 57.1929 13.9953 57.5138 14.1898C57.8444 14.3842 58.1945 14.4815 58.564 14.4815C58.9432 14.4815 59.2981 14.3891 59.6288 14.2043C59.9594 14.0099 60.2219 13.7376 60.4164 13.3875C60.6109 13.0277 60.7081 12.5999 60.7081 12.104ZM66.5095 9.23051C66.772 8.86099 67.1318 8.55469 67.5889 8.31159C68.0556 8.05876 68.5856 7.93235 69.1787 7.93235C69.8691 7.93235 70.4915 8.10252 71.0457 8.44286C71.6097 8.7832 72.0522 9.2694 72.3731 9.90146C72.7037 10.5238 72.869 11.2482 72.869 12.0748C72.869 12.9013 72.7037 13.6355 72.3731 14.2773C72.0522 14.9093 71.6097 15.4004 71.0457 15.7505C70.4915 16.1005 69.8691 16.2756 69.1787 16.2756C68.5856 16.2756 68.0605 16.154 67.6034 15.9109C67.1561 15.6678 66.7915 15.3615 66.5095 14.992V19.995H64.4674V8.06362H66.5095V9.23051ZM70.7832 12.0748C70.7832 11.5886 70.6811 11.1704 70.4769 10.8204C70.2824 10.4606 70.0199 10.1883 69.6892 10.0036C69.3683 9.81881 69.0183 9.72643 68.639 9.72643C68.2695 9.72643 67.9195 9.82367 67.5889 10.0182C67.268 10.2029 67.0054 10.4752 66.8012 10.835C66.6067 11.1948 66.5095 11.6178 66.5095 12.104C66.5095 12.5902 66.6067 13.0132 66.8012 13.3729C67.0054 13.7327 67.268 14.0099 67.5889 14.2043C67.9195 14.3891 68.2695 14.4815 68.639 14.4815C69.0183 14.4815 69.3683 14.3842 69.6892 14.1898C70.0199 13.9953 70.2824 13.7181 70.4769 13.3584C70.6811 12.9986 70.7832 12.5707 70.7832 12.0748ZM76.1032 9.23051C76.3658 8.86099 76.7256 8.55469 77.1826 8.31159C77.6493 8.05876 78.1793 7.93235 78.7725 7.93235C79.4629 7.93235 80.0852 8.10252 80.6395 8.44286C81.2035 8.7832 81.6459 9.2694 81.9668 9.90146C82.2974 10.5238 82.4627 11.2482 82.4627 12.0748C82.4627 12.9013 82.2974 13.6355 81.9668 14.2773C81.6459 14.9093 81.2035 15.4004 80.6395 15.7505C80.0852 16.1005 79.4629 16.2756 78.7725 16.2756C78.1793 16.2756 77.6542 16.154 77.1972 15.9109C76.7499 15.6678 76.3852 15.3615 76.1032 14.992V19.995H74.0612V8.06362H76.1032V9.23051ZM80.3769 12.0748C80.3769 11.5886 80.2748 11.1704 80.0706 10.8204C79.8761 10.4606 79.6136 10.1883 79.283 10.0036C78.9621 9.81881 78.612 9.72643 78.2328 9.72643C77.8633 9.72643 77.5132 9.82367 77.1826 10.0182C76.8617 10.2029 76.5991 10.4752 76.3949 10.835C76.2005 11.1948 76.1032 11.6178 76.1032 12.104C76.1032 12.5902 76.2005 13.0132 76.3949 13.3729C76.5991 13.7327 76.8617 14.0099 77.1826 14.2043C77.5132 14.3891 77.8633 14.4815 78.2328 14.4815C78.612 14.4815 78.9621 14.3842 79.283 14.1898C79.6136 13.9953 79.8761 13.7181 80.0706 13.3584C80.2748 12.9986 80.3769 12.5707 80.3769 12.0748Z" fill="url(#paint0_linear_1803_15960)"/>
<path d="M6.1968 11.9428C6.1968 11.9395 6.19632 11.9362 6.19584 11.9323C6.17385 11.5776 6.007 11.2329 5.70389 10.9962L1.09506 7.33211C0.532342 6.89226 -0.281853 6.99123 -0.723612 7.55251C-1.16537 8.11427 -1.06688 8.9256 -0.504645 9.36544L2.83675 12.0217L-0.504645 14.678C-1.06688 15.1174 -1.16537 15.9292 -0.723612 16.4905C-0.281853 17.0518 0.532342 17.1507 1.09506 16.7109L5.70436 13.0463C6.00748 12.8096 6.17433 12.4649 6.19632 12.1102C6.1968 12.1068 6.1968 12.1035 6.19728 12.0997C6.19871 12.0734 6.19919 12.0475 6.19919 12.0213C6.19919 11.9954 6.19823 11.9691 6.1968 11.9428Z" fill="url(#paint1_linear_1803_15960)"/>
<defs>
<linearGradient id="paint0_linear_1803_15960" x1="54.3927" y1="12.1694" x2="82.2037" y2="13.4568" gradientUnits="userSpaceOnUse">
<stop stop-color="#2585E3"/>
<stop offset="1" stop-color="#16C9CC"/>
</linearGradient>
<linearGradient id="paint1_linear_1803_15960" x1="-1" y1="11.9398" x2="6.18351" y2="12.4529" gradientUnits="userSpaceOnUse">
<stop stop-color="#2585E3"/>
<stop offset="1" stop-color="#16C9CC"/>
</linearGradient>
</defs>
</svg>
