<svg width="275" height="82" viewBox="0 0 275 82" fill="none" xmlns="http://www.w3.org/2000/svg">
<path d="M108.943 19.9674L104.824 36.5963H107.141C112.547 36.5963 116.46 31.9628 116.46 25.6305C116.46 22.1297 114.812 19.9674 111.208 19.9674H108.943ZM104.464 37.9348L101.838 48.4887C101.478 49.8273 101.324 50.8569 101.324 51.6292C101.324 52.9162 101.735 53.6885 102.868 54.5637V54.6667H88.453V54.5637C90.9242 53.1737 91.6449 51.8866 92.4686 48.4887L98.3891 24.8068C98.7495 23.4682 98.9554 22.4386 98.9554 21.6663C98.9554 20.3793 98.4921 19.607 97.411 18.7318V18.6289H114.606C121.196 18.6289 125.932 21.1 125.932 26.4027C125.932 33.7133 118.982 37.2141 112.186 37.3685C117.18 37.7289 119.445 40.1486 119.651 44.1642C119.754 45.3998 119.754 47.9739 119.857 48.9006C120.063 51.7836 120.63 53.1737 122.843 54.5637V54.6667H111.414C110.848 53.4311 110.642 51.9896 110.539 50.2906C110.488 48.8491 110.899 44.0098 110.796 42.2594C110.693 39.5823 109.715 37.9348 106.523 37.9348H104.464ZM134.447 55.1815C128.681 55.1815 124.665 51.5777 124.665 45.2968C124.665 36.9567 131.77 28.6165 141.037 28.6165C145.619 28.6165 148.296 30.8817 148.296 34.0736C148.296 39.7882 141.706 42.1049 133.52 42.3623C133.417 43.289 133.314 44.1642 133.314 45.0394C133.314 49.4154 135.58 51.4233 138.669 51.4233C141.294 51.4233 143.251 50.2906 145.361 47.7165H145.619C143.354 52.6074 139.492 55.1815 134.447 55.1815ZM140.882 29.5432C138.154 29.5432 134.704 35.8755 133.623 41.6931C138.772 40.7149 142.221 35.9785 142.221 31.4995C142.221 30.2639 141.809 29.5432 140.882 29.5432ZM174.095 39.3249L171.572 49.7243C171.006 52.041 172.551 53.1222 175.279 51.8351L175.331 51.9381C173.117 54.3063 170.903 55.1815 168.329 55.1815C164.828 55.1815 162.923 52.9162 162.975 49.8788C162.975 49.5699 163.026 49.2095 163.129 48.8491C161.224 52.5044 158.805 55.13 154.738 55.13C150.516 55.13 147.787 51.7322 147.787 46.5839C147.787 37.4715 154.326 28.668 162.306 28.668C165.961 28.668 168.072 30.5728 168.947 33.4558C171.058 30.7273 173.786 29.2858 177.081 28.7194C175.948 31.8084 175.022 35.6181 174.095 39.3249ZM158.908 51.5262C161.018 51.5262 163.078 48.5917 164.107 44.6276L165.858 37.8319C166.321 36.0815 166.579 34.6399 166.579 33.5588C166.579 31.448 165.652 30.3669 164.262 30.3669C160.401 30.3669 156.642 41.8475 156.642 47.8195C156.642 50.2392 157.363 51.5262 158.908 51.5262ZM193.171 28.668C197.289 28.668 200.069 30.7787 200.069 34.2281C200.069 37.42 197.598 39.4793 194.715 39.4793C192.965 39.4793 191.163 38.4496 191.008 36.5448C191.266 36.6992 191.678 36.7507 192.038 36.7507C193.994 36.7507 195.333 34.5885 195.333 32.1688C195.333 30.6243 194.818 29.5432 193.428 29.5432C189.824 29.5432 185.603 37.9863 185.603 44.679C185.603 49.2095 187.713 51.4233 190.699 51.4233C193.428 51.4233 195.178 50.1877 196.98 47.6135H197.289C195.384 52.5559 191.472 55.1815 186.581 55.1815C181.072 55.1815 176.954 51.5262 176.954 45.1939C176.954 36.6992 183.904 28.668 193.171 28.668ZM213.32 30.4699L208.892 48.5917C208.789 48.9521 208.738 49.261 208.738 49.5699C208.738 51.1144 209.768 51.9896 211.209 51.9896C212.29 51.9896 213.68 51.4233 214.967 50.2392L215.019 50.3936C212.805 53.534 210.128 55.1815 206.318 55.1815C202.251 55.1815 200.14 52.9162 200.14 49.6214C200.14 48.9521 200.243 48.1799 200.449 47.4591L204.671 30.4699H202.354L202.509 29.8006C208.069 28.462 212.136 25.4246 215.431 20.2248H215.894L213.629 29.1828H219.292L218.726 30.4699H213.32ZM223 21.5634C223 18.7318 225.214 16.4666 228.149 16.4666C230.877 16.4666 232.73 18.4229 232.73 20.9971C232.73 23.8286 230.517 26.0938 227.582 26.0938C224.854 26.0938 223 24.1375 223 21.5634ZM230.671 29.1828L225.574 49.7243C225.471 50.0847 225.42 50.3936 225.42 50.7025C225.42 51.7836 225.986 52.4014 227.067 52.4014C227.634 52.4014 228.303 52.247 229.075 51.8351L229.127 51.9381C227.067 54.3578 224.699 55.1815 222.382 55.1815C218.727 55.1815 216.977 53.0192 216.977 50.1877C216.977 49.5184 217.08 48.8491 217.234 48.1799L220.581 34.7429C220.889 33.3529 221.147 32.4777 221.147 31.8084C221.147 30.6758 220.632 30.058 219.654 29.2858V29.1828H230.671ZM245.774 25.579L245.105 29.1828H249.945L249.378 30.4699H244.796L239.236 53.0707C236.919 62.5435 232.338 65.9928 224.667 66.0958V65.9928C227.498 64.3454 229.146 59.6605 231.565 49.364L235.89 30.4699H233.213L233.367 29.9035L236.302 28.7709L236.765 27.3294C239.03 19.6585 244.024 15.6944 250.614 15.6944C254.526 15.6944 257.358 17.3933 257.358 20.3278C257.358 23.3653 254.887 24.9612 252.21 24.9612C250.511 24.9612 249.275 24.2919 248.863 23.3653C250.82 23.0564 252.313 21.306 252.313 18.7318C252.313 17.3933 251.746 16.5181 250.562 16.5181C248.4 16.5181 247.062 19.0407 245.774 25.579ZM274.65 29.1828L269.501 49.5699C266.927 60.0723 262.139 66.4562 252.873 66.4562C247.673 66.4562 243.142 64.3969 243.142 60.3297C243.142 57.7556 245.305 55.9537 248.033 55.9537C250.041 55.9537 251.586 56.726 252.564 57.9615C250.968 58.116 249.732 59.6605 249.732 61.9257C249.732 64.0365 250.813 65.581 252.873 65.581C256.322 65.581 258.021 61.2049 259.874 53.8429L261.419 47.5621C259.308 51.7836 256.837 54.5637 252.564 54.5637C248.703 54.5637 246.849 51.9896 246.849 48.7462C246.849 47.9224 247.004 47.0472 247.21 46.2235L250.041 34.7429C250.35 33.3529 250.556 32.4777 250.556 31.8084C250.556 30.6758 250.093 30.058 249.114 29.2858V29.1828H260.132L255.704 46.7383C255.55 47.3561 255.447 47.9224 255.447 48.4373C255.447 49.5184 255.91 50.2392 257.043 50.2392C259.153 50.2392 261.316 47.9739 262.551 42.9801L265.949 29.1828H274.65Z" fill="white"/>
<g clip-path="url(#clip0_1733_15236)">
<mask id="mask0_1733_15236" style="mask-type:luminance" maskUnits="userSpaceOnUse" x="0" y="0" width="82" height="82">
<path d="M81.4815 0H0V81.4815H81.4815V0Z" fill="white"/>
</mask>
<g mask="url(#mask0_1733_15236)">
<path d="M81.4815 39.6849C81.4815 34.2871 74.7219 29.1715 64.3581 25.9993C66.7496 15.4362 65.6866 7.03232 61.0032 4.34173C59.9235 3.71062 58.6612 3.41165 57.2828 3.41165V7.11536C58.0467 7.11536 58.6612 7.26484 59.1763 7.54718C61.435 8.84266 62.4148 13.7754 61.6509 20.1198C61.4683 21.6811 61.1692 23.3253 60.8039 25.0028C57.5487 24.2056 53.9944 23.591 50.2574 23.1924C48.0153 20.1198 45.6901 17.3296 43.3481 14.8881C48.7626 9.85578 53.845 7.09876 57.2995 7.09876V3.39505C52.7321 3.39505 46.7531 6.65034 40.7075 12.2972C34.6619 6.68354 28.6829 3.46149 24.1156 3.46149V7.1652C27.5536 7.1652 32.6524 9.90559 38.0668 14.9048C35.7415 17.3462 33.4164 20.1198 31.2074 23.1924C27.4539 23.591 23.8997 24.2056 20.6444 25.0194C20.2624 23.3585 19.9801 21.7475 19.7808 20.2029C19.0002 13.8584 19.9635 8.92571 22.2056 7.61362C22.7039 7.31465 23.3516 7.1818 24.1156 7.1818V3.47809C22.7205 3.47809 21.4582 3.77706 20.3621 4.40817C15.6951 7.09876 14.6487 15.4861 17.057 26.0159C6.72647 29.2047 0 34.3037 0 39.6849C0 45.0823 6.75967 50.198 17.1234 53.37C14.7318 63.9331 15.7947 72.3372 20.4783 75.0278C21.5579 75.6589 22.8201 75.9577 24.2152 75.9577C28.7826 75.9577 34.7617 72.7025 40.8073 67.0555C46.8525 72.6692 52.8319 75.8912 57.399 75.8912C58.7943 75.8912 60.0566 75.5924 61.1525 74.9613C65.8197 72.2707 66.8661 63.8835 64.4576 53.3534C74.7552 50.1814 81.4815 45.066 81.4815 39.6849ZM59.8573 28.6068C59.2428 30.7493 58.4786 32.9582 57.6149 35.1671C56.9342 33.8385 56.2198 32.5098 55.4393 31.1812C54.6754 29.8525 53.8616 28.557 53.0478 27.2947C55.406 27.6435 57.6814 28.0753 59.8573 28.6068ZM52.2503 46.295C50.9551 48.5371 49.6263 50.6628 48.2479 52.6394C45.7732 52.8553 43.2653 52.9714 40.7407 52.9714C38.2328 52.9714 35.7249 52.8553 33.2669 52.656C31.8884 50.6794 30.5431 48.5704 29.2476 46.3446C27.9854 44.1691 26.8394 41.9602 25.7931 39.7344C26.8228 37.509 27.9854 35.2835 29.231 33.1077C30.5265 30.8656 31.8552 28.7397 33.2337 26.7633C35.7082 26.5474 38.2162 26.4311 40.7407 26.4311C43.2487 26.4311 45.7566 26.5474 48.2146 26.7467C49.593 28.7231 50.9385 30.8323 52.2337 33.0579C53.496 35.2336 54.6422 37.4424 55.6885 39.6682C54.6422 41.8937 53.496 44.1192 52.2503 46.295ZM57.6149 44.1358C58.5119 46.3613 59.2757 48.5867 59.9069 50.746C57.7313 51.2773 55.4393 51.7258 53.0641 52.0748C53.8779 50.7959 54.6921 49.4837 55.456 48.1386C56.2198 46.8097 56.9342 45.4646 57.6149 44.1358ZM40.774 61.857C39.2293 60.2627 37.6848 58.4857 36.1567 56.5424C37.6516 56.6089 39.1797 56.6585 40.7241 56.6585C42.2855 56.6585 43.8299 56.6255 45.3414 56.5424C43.8465 58.4857 42.3018 60.2627 40.774 61.857ZM28.4172 52.0748C26.0588 51.7258 23.7834 51.2939 21.6077 50.7626C22.2222 48.62 22.9862 46.4112 23.8499 44.2023C24.5308 45.5308 25.245 46.8596 26.0256 48.1881C26.8062 49.517 27.6034 50.8125 28.4172 52.0748ZM40.6908 17.5123C42.2356 19.1067 43.78 20.8838 45.3081 22.827C43.8133 22.7606 42.2855 22.7108 40.7407 22.7108C39.1797 22.7108 37.6349 22.744 36.1235 22.827C37.6183 20.8838 39.1631 19.1067 40.6908 17.5123ZM28.4006 27.2947C27.5868 28.5736 26.7729 29.8857 26.009 31.231C25.245 32.5596 24.5308 33.8883 23.8499 35.217C22.953 32.9915 22.189 30.7659 21.5579 28.6068C23.7336 28.092 26.0256 27.6435 28.4006 27.2947ZM13.3699 48.0887C7.49046 45.5807 3.6871 42.2923 3.6871 39.6849C3.6871 37.0771 7.49046 33.7721 13.3699 31.2808C14.7982 30.6663 16.3594 30.1182 17.9704 29.6033C18.9171 32.8586 20.1628 36.2467 21.7073 39.7178C20.1794 43.1726 18.9504 46.5439 18.0203 49.7828C16.376 49.2678 14.8148 48.7032 13.3699 48.0887ZM22.3053 71.8222C20.0465 70.5266 19.0666 65.5939 19.8306 59.2496C20.0133 57.6882 20.3122 56.044 20.6776 54.3668C23.9329 55.164 27.4871 55.7785 31.224 56.1771C33.4662 59.2496 35.7914 62.0397 38.1333 64.4814C32.7188 69.5135 27.6366 72.2707 24.182 72.2707C23.4347 72.254 22.8035 72.1046 22.3053 71.8222ZM61.7008 59.1664C62.4814 65.5111 61.5182 70.4438 59.2757 71.7556C58.7777 72.0547 58.1299 72.1875 57.366 72.1875C53.9278 72.1875 48.8291 69.4473 43.4147 64.4481C45.74 62.0067 48.0652 59.2329 50.2741 56.1604C54.0277 55.7618 57.5819 55.1473 60.8371 54.3335C61.2191 56.011 61.5182 57.622 61.7008 59.1664ZM68.0951 48.0887C66.6668 48.7032 65.1054 49.2511 63.4944 49.7662C62.5479 46.511 61.3023 43.1227 59.7575 39.6516C61.2856 36.1968 62.5146 32.8254 63.4445 29.5867C65.0888 30.1016 66.6502 30.6663 68.1117 31.2808C73.991 33.7887 77.7944 37.0771 77.7944 39.6849C77.7778 42.2923 73.9743 45.5974 68.0951 48.0887Z" fill="url(#paint0_linear_1733_15236)"/>
<path d="M40.7241 47.2749C44.916 47.2749 48.3141 43.8768 48.3141 39.6849C48.3141 35.4927 44.916 32.0946 40.7241 32.0946C36.5322 32.0946 33.134 35.4927 33.134 39.6849C33.134 43.8768 36.5322 47.2749 40.7241 47.2749Z" fill="url(#paint1_linear_1733_15236)"/>
</g>
</g>
<defs>
<linearGradient id="paint0_linear_1733_15236" x1="5" y1="8" x2="74.5" y2="61.5" gradientUnits="userSpaceOnUse">
<stop stop-color="#267BE6"/>
<stop offset="1" stop-color="#15CBCA"/>
</linearGradient>
<linearGradient id="paint1_linear_1733_15236" x1="34.0655" y1="33.058" x2="48.0937" y2="42.6745" gradientUnits="userSpaceOnUse">
<stop stop-color="#267BE6"/>
<stop offset="1" stop-color="#15CBCA"/>
</linearGradient>
<clipPath id="clip0_1733_15236">
<rect width="81.4815" height="81.4815" fill="white"/>
</clipPath>
</defs>
</svg>
