<svg width="212" height="212" viewBox="0 0 212 212" fill="none" xmlns="http://www.w3.org/2000/svg">
<g clip-path="url(#clip0_1733_15238)">
<mask id="mask0_1733_15238" style="mask-type:luminance" maskUnits="userSpaceOnUse" x="0" y="0" width="212" height="212">
<path d="M212 3.05176e-05H0V212H212V3.05176e-05Z" fill="white"/>
</mask>
<g mask="url(#mask0_1733_15238)">
<path d="M212 103.253C212 89.2087 194.413 75.899 167.448 67.6454C173.67 40.1623 170.905 18.2968 158.719 11.2964C155.91 9.65437 152.626 8.87651 149.04 8.87651V18.5129C151.027 18.5129 152.626 18.9018 153.966 19.6364C159.843 23.007 162.392 35.8411 160.404 52.3482C159.929 56.4102 159.151 60.6882 158.201 65.0526C149.731 62.9785 140.484 61.3795 130.761 60.3425C124.927 52.3482 118.877 45.0885 112.784 38.7363C126.871 25.643 140.095 18.4697 149.083 18.4697V8.83331C137.199 8.83331 121.643 17.303 105.913 31.9952C90.1839 17.3894 74.6278 9.00618 62.7444 9.00618V18.6426C71.6894 18.6426 84.9556 25.7726 99.0429 38.7795C92.9929 45.1317 86.9433 52.3482 81.1961 60.3425C71.4301 61.3795 62.1826 62.9785 53.713 65.0958C52.7191 60.7746 51.9845 56.583 51.4659 52.5642C49.435 36.0571 51.9413 23.2231 57.7749 19.8093C59.0713 19.0314 60.7566 18.6857 62.7444 18.6857V9.04938C59.1145 9.04938 55.8304 9.82724 52.9784 11.4693C40.8357 18.4697 38.1134 40.2919 44.3791 67.6886C17.501 75.9854 0 89.252 0 103.253C0 117.296 17.5874 130.606 44.552 138.859C38.3294 166.342 41.095 188.208 53.2809 195.209C56.0897 196.851 59.3739 197.628 63.0037 197.628C74.8871 197.628 90.4436 189.159 106.173 174.466C121.902 189.072 137.459 197.455 149.342 197.455C152.972 197.455 156.256 196.678 159.108 195.036C171.251 188.035 173.973 166.213 167.707 138.816C194.499 130.563 212 117.254 212 103.253ZM155.738 74.4297C154.139 80.0041 152.151 85.7513 149.903 91.4983C148.132 88.0416 146.274 84.5846 144.243 81.1277C142.256 77.6707 140.138 74.3001 138.021 71.0159C144.156 71.9234 150.077 73.047 155.738 74.4297ZM135.946 120.451C132.576 126.285 129.119 131.815 125.532 136.958C119.094 137.52 112.568 137.822 106 137.822C99.4748 137.822 92.9496 137.52 86.5544 137.001C82.9678 131.859 79.4676 126.371 76.097 120.58C72.8129 114.92 69.8312 109.173 67.1089 103.382C69.788 97.5915 72.8129 91.8013 76.0538 86.1403C79.4244 80.3066 82.8814 74.7755 86.468 69.6331C92.9063 69.0714 99.4315 68.7689 106 68.7689C112.525 68.7689 119.05 69.0714 125.446 69.59C129.032 74.7322 132.533 80.2202 135.903 86.0107C139.187 91.6714 142.169 97.4184 144.891 103.21C142.169 109 139.187 114.79 135.946 120.451ZM149.903 114.833C152.237 120.624 154.225 126.414 155.867 132.032C150.206 133.414 144.243 134.581 138.063 135.489C140.181 132.162 142.299 128.748 144.286 125.248C146.274 121.79 148.132 118.291 149.903 114.833ZM106.087 160.941C102.067 156.793 98.0491 152.169 94.0732 147.113C97.9625 147.286 101.938 147.415 105.957 147.415C110.019 147.415 114.037 147.329 117.97 147.113C114.081 152.169 110.062 156.793 106.087 160.941ZM73.9364 135.489C67.8002 134.581 61.8801 133.458 56.2193 132.075C57.8181 126.5 59.8059 120.753 62.053 115.006C63.8247 118.463 65.6828 121.92 67.7139 125.377C69.7448 128.834 71.819 132.205 73.9364 135.489ZM105.87 45.5638C109.889 49.7122 113.908 54.3359 117.883 59.3918C113.994 59.219 110.019 59.0893 106 59.0893C101.938 59.0893 97.9193 59.1757 93.9867 59.3918C97.876 54.3359 101.895 49.7122 105.87 45.5638ZM73.8932 71.0159C71.7758 74.3433 69.6583 77.7571 67.6706 81.2573C65.6828 84.7143 63.8247 88.1713 62.053 91.6282C59.7195 85.8378 57.7318 80.0474 56.0897 74.4297C61.7505 73.0902 67.7139 71.9234 73.8932 71.0159ZM34.786 125.118C19.4888 118.593 9.59318 110.037 9.59318 103.253C9.59318 96.4679 19.4888 87.8688 34.786 81.387C38.5023 79.788 42.5642 78.3621 46.7558 77.0225C49.2189 85.4921 52.4598 94.3073 56.4786 103.339C52.503 112.327 49.3054 121.099 46.8855 129.526C42.6074 128.186 38.5455 126.717 34.786 125.118ZM58.0342 186.868C52.1574 183.497 49.6078 170.664 51.5956 154.157C52.0709 150.094 52.8488 145.816 53.7994 141.453C62.2691 143.527 71.5165 145.125 81.2393 146.163C87.073 154.157 93.1228 161.416 99.216 167.769C85.1284 180.862 71.9055 188.035 62.9173 188.035C60.9727 187.992 59.3306 187.603 58.0342 186.868ZM160.534 153.94C162.565 170.448 160.059 183.282 154.225 186.695C152.929 187.473 151.243 187.819 149.256 187.819C140.31 187.819 127.045 180.689 112.957 167.682C119.007 161.33 125.057 154.113 130.804 146.119C140.57 145.082 149.818 143.483 158.287 141.366C159.281 145.731 160.059 149.922 160.534 153.94ZM177.171 125.118C173.455 126.717 169.392 128.143 165.201 129.483C162.738 121.013 159.497 112.197 155.478 103.166C159.454 94.1775 162.652 85.4057 165.071 76.9793C169.349 78.3189 173.412 79.788 177.214 81.387C192.511 87.912 202.407 96.4679 202.407 103.253C202.364 110.037 192.468 118.636 177.171 125.118Z" fill="url(#paint0_linear_1733_15238)"/>
<path d="M105.956 123.001C116.863 123.001 125.704 114.159 125.704 103.253C125.704 92.3454 116.863 83.5043 105.956 83.5043C95.05 83.5043 86.2085 92.3454 86.2085 103.253C86.2085 114.159 95.05 123.001 105.956 123.001Z" fill="url(#paint1_linear_1733_15238)"/>
</g>
</g>
<defs>
<linearGradient id="paint0_linear_1733_15238" x1="13.0091" y1="20.8146" x2="193.835" y2="160.012" gradientUnits="userSpaceOnUse">
<stop stop-color="#267BE6"/>
<stop offset="1" stop-color="#15CBCA"/>
</linearGradient>
<linearGradient id="paint1_linear_1733_15238" x1="88.6321" y1="86.0108" x2="125.131" y2="111.031" gradientUnits="userSpaceOnUse">
<stop stop-color="#267BE6"/>
<stop offset="1" stop-color="#15CBCA"/>
</linearGradient>
<clipPath id="clip0_1733_15238">
<rect width="212" height="212" fill="white"/>
</clipPath>
</defs>
</svg>
