<svg width="39" height="32" viewBox="0 0 39 32" fill="none" xmlns="http://www.w3.org/2000/svg">
<path fill-rule="evenodd" clip-rule="evenodd" d="M9.93027 2.47078C11.1756 0.911824 13.0904 0 15.1188 0H34.0702C35.4443 0 36.7168 0.599568 37.6224 1.59144C38.5223 2.57717 39 3.87773 39 5.2V26.8C39 28.1222 38.5223 29.4229 37.6224 30.4086C36.7168 31.4005 35.4443 32 34.0702 32H15.1188C13.0904 32 11.1756 31.0882 9.93027 29.5293L0.692304 17.9646C-0.230766 16.8091 -0.23077 15.1909 0.692304 14.0354L9.93027 2.47078ZM16.4051 8.06862C17.0468 7.44379 18.0872 7.44379 18.7291 8.06862L23.3769 12.5941L28.0247 8.06862C28.6664 7.44379 29.707 7.44379 30.3487 8.06862L31.5106 9.2C32.1525 9.82483 32.1525 10.8379 31.5106 11.4627L26.8628 15.9882L31.5106 20.5138C32.1525 21.1386 32.1525 22.1517 31.5106 22.7765L30.3487 23.9078C29.707 24.5326 28.6664 24.5326 28.0247 23.9078L23.3769 19.3824L18.7291 23.9078C18.0872 24.5326 17.0468 24.5326 16.4051 23.9078L15.2431 22.7765C14.6013 22.1517 14.6013 21.1386 15.2431 20.5138L19.891 15.9882L15.2431 11.4627C14.6013 10.8379 14.6013 9.82483 15.2431 9.2L16.4051 8.06862Z" fill="#C8C8C8"/>
<rect x="13" y="6" width="21" height="21" fill="#C8C8C8"/>
<rect width="3.5" height="16" rx="1.75" transform="matrix(-0.706495 -0.707719 -0.707719 0.706495 30.1836 11.8713)" fill="#454545"/>
<rect width="3.5" height="16" rx="1.75" transform="matrix(0.707719 -0.706495 -0.706495 -0.707719 27.6992 23.1829)" fill="#454545"/>
</svg>
