<svg width="36" height="36" viewBox="0 0 36 36" fill="none" xmlns="http://www.w3.org/2000/svg">
<g clip-path="url(#clip0_1757_15825)">
<mask id="mask0_1757_15825" style="mask-type:luminance" maskUnits="userSpaceOnUse" x="0" y="0" width="36" height="36">
<path d="M35.5 0.5H0V36H35.5V0.5Z" fill="white"/>
</mask>
<g mask="url(#mask0_1757_15825)">
<path d="M35.5 17.79C35.5 15.4382 32.555 13.2095 28.0397 11.8274C29.0816 7.22529 28.6185 3.56385 26.578 2.39161C26.1076 2.11664 25.5576 1.98639 24.9571 1.98639V3.60003C25.2899 3.60003 25.5576 3.66516 25.782 3.78816C26.7661 4.35258 27.193 6.50168 26.8602 9.26584C26.7806 9.94604 26.6503 10.6624 26.4911 11.3932C25.0729 11.0459 23.5244 10.7782 21.8963 10.6045C20.9194 9.26584 19.9063 8.05019 18.886 6.98649C21.245 4.79398 23.4593 3.59279 24.9643 3.59279V1.97916C22.9744 1.97916 20.3695 3.39743 17.7355 5.85768C15.1016 3.41189 12.4966 2.0081 10.5067 2.0081V3.62174C12.0046 3.62174 14.226 4.81568 16.585 6.99372C15.5719 8.05742 14.5589 9.26584 13.5965 10.6045C11.9612 10.7782 10.4127 11.0459 8.9944 11.4005C8.82796 10.6769 8.70496 9.97498 8.61811 9.30202C8.27802 6.53786 8.69772 4.38876 9.67458 3.81711C9.89166 3.68685 10.1739 3.62897 10.5067 3.62897V2.01534C9.89889 2.01534 9.34895 2.14559 8.87138 2.42055C6.83805 3.59279 6.38219 7.24699 7.43141 11.8346C2.9306 13.224 0 15.4455 0 17.79C0 20.1415 2.94507 22.3704 7.46035 23.7523C6.41837 28.3545 6.88147 32.016 8.92204 33.1882C9.39238 33.4632 9.94232 33.5934 10.5501 33.5934C12.54 33.5934 15.145 32.1752 17.779 29.7149C20.4128 32.1607 23.0179 33.5644 25.0077 33.5644C25.6156 33.5644 26.1656 33.4342 26.643 33.1593C28.6765 31.987 29.1323 28.3329 28.083 23.7451C32.5695 22.3631 35.5 20.1344 35.5 17.79ZM26.0787 12.9635C25.811 13.8969 25.4781 14.8593 25.1018 15.8216C24.8052 15.2428 24.494 14.6639 24.1539 14.0851C23.8211 13.5062 23.4665 12.9417 23.112 12.3918C24.1394 12.5438 25.1307 12.7319 26.0787 12.9635ZM22.7645 20.6699C22.2002 21.6467 21.6213 22.5729 21.0207 23.434C19.9426 23.5281 18.8499 23.5787 17.75 23.5787C16.6573 23.5787 15.5647 23.5281 14.4938 23.4413C13.8932 22.5801 13.3071 21.6612 12.7427 20.6915C12.1927 19.7437 11.6934 18.7813 11.2376 17.8116C11.6862 16.842 12.1927 15.8724 12.7354 14.9244C13.2998 13.9476 13.8787 13.0214 14.4793 12.1603C15.5574 12.0662 16.6501 12.0155 17.75 12.0155C18.8427 12.0155 19.9353 12.0662 21.0062 12.153C21.6068 13.0141 22.193 13.9331 22.7573 14.9027C23.3072 15.8506 23.8066 16.813 24.2625 17.7827C23.8066 18.7523 23.3072 19.7219 22.7645 20.6699ZM25.1018 19.7292C25.4925 20.6988 25.8254 21.6683 26.1003 22.6091C25.1525 22.8406 24.1539 23.036 23.1191 23.188C23.4736 22.6308 23.8283 22.0591 24.1612 21.4731C24.494 20.8941 24.8052 20.3081 25.1018 19.7292ZM17.7645 27.45C17.0915 26.7553 16.4186 25.9812 15.7528 25.1345C16.4041 25.1635 17.0699 25.1851 17.7428 25.1851C18.423 25.1851 19.0959 25.1707 19.7544 25.1345C19.1031 25.9812 18.4301 26.7553 17.7645 27.45ZM12.3809 23.188C11.3533 23.036 10.362 22.8478 9.41408 22.6163C9.68181 21.6828 10.0147 20.7205 10.391 19.7581C10.6876 20.3369 10.9988 20.9159 11.3389 21.4947C11.679 22.0736 12.0263 22.6381 12.3809 23.188ZM17.7283 8.12978C18.4013 8.82444 19.0741 9.5987 19.7399 10.4453C19.0886 10.4164 18.423 10.3947 17.75 10.3947C17.0699 10.3947 16.3969 10.4091 15.7383 10.4453C16.3896 9.5987 17.0626 8.82444 17.7283 8.12978ZM12.3736 12.3918C12.0191 12.949 11.6645 13.5206 11.3316 14.1068C10.9988 14.6856 10.6876 15.2645 10.391 15.8434C10.0002 14.8738 9.66735 13.9042 9.39238 12.9635C10.3403 12.7391 11.3389 12.5438 12.3736 12.3918ZM5.82502 21.4514C3.26346 20.3587 1.6064 18.926 1.6064 17.79C1.6064 16.6538 3.26346 15.2139 5.82502 14.1285C6.44732 13.8607 7.1275 13.6219 7.82939 13.3976C8.24184 14.8159 8.78455 16.292 9.4575 17.8043C8.79178 19.3095 8.25632 20.7783 7.85111 22.1895C7.13473 21.9651 6.45455 21.7191 5.82502 21.4514ZM9.71799 31.7916C8.7339 31.2272 8.30697 29.0781 8.63983 26.314C8.71942 25.6337 8.84968 24.9173 9.00886 24.1866C10.4271 24.5339 11.9756 24.8017 13.6037 24.9753C14.5806 26.314 15.5937 27.5295 16.614 28.5934C14.255 30.7858 12.0408 31.987 10.5357 31.987C10.2101 31.9798 9.93507 31.9147 9.71799 31.7916ZM26.8819 26.2777C27.222 29.042 26.8024 31.1911 25.8254 31.7626C25.6084 31.8929 25.3261 31.9508 24.9933 31.9508C23.4954 31.9508 21.274 30.7569 18.915 28.5789C19.9281 27.5152 20.9412 26.3067 21.9035 24.9681C23.5389 24.7944 25.0874 24.5267 26.5056 24.1721C26.672 24.903 26.8024 25.6049 26.8819 26.2777ZM29.6678 21.4514C29.0455 21.7191 28.3652 21.9578 27.6634 22.1822C27.251 20.764 26.7083 19.2878 26.0353 17.7755C26.701 16.2703 27.2365 14.8014 27.6416 13.3904C28.358 13.6147 29.0383 13.8607 29.675 14.1285C32.2365 15.2211 33.8936 16.6538 33.8936 17.79C33.8864 18.926 32.2293 20.3659 29.6678 21.4514Z" fill="url(#paint0_linear_1757_15825)"/>
<path d="M17.7426 21.0968C19.569 21.0968 21.0495 19.6163 21.0495 17.79C21.0495 15.9635 19.569 14.483 17.7426 14.483C15.9163 14.483 14.4358 15.9635 14.4358 17.79C14.4358 19.6163 15.9163 21.0968 17.7426 21.0968Z" fill="url(#paint1_linear_1757_15825)"/>
</g>
</g>
<defs>
<linearGradient id="paint0_linear_1757_15825" x1="2.17841" y1="3.98545" x2="32.4583" y2="27.2944" gradientUnits="userSpaceOnUse">
<stop stop-color="#267BE6"/>
<stop offset="1" stop-color="#15CBCA"/>
</linearGradient>
<linearGradient id="paint1_linear_1757_15825" x1="14.8416" y1="14.9028" x2="20.9534" y2="19.0925" gradientUnits="userSpaceOnUse">
<stop stop-color="#267BE6"/>
<stop offset="1" stop-color="#15CBCA"/>
</linearGradient>
<clipPath id="clip0_1757_15825">
<rect width="35.5" height="35.5" fill="white" transform="translate(0 0.5)"/>
</clipPath>
</defs>
</svg>
