<svg width="215" height="56" viewBox="0 0 215 56" fill="none" xmlns="http://www.w3.org/2000/svg">
<path d="M30.2299 30.6017C30.2299 28.5146 30.6399 26.6636 31.4598 25.0486C32.3046 23.4335 33.4475 22.1912 34.8886 21.3216C36.3297 20.452 37.9323 20.0171 39.6964 20.0171C41.0381 20.0171 42.3177 20.3153 43.5352 20.9116C44.7527 21.4831 45.7217 22.2533 46.4422 23.2223V13.4204H51.7345V41H46.4422V37.9439C45.7962 38.9626 44.8893 39.7825 43.7215 40.4037C42.5538 41.0248 41.1996 41.3354 39.6591 41.3354C37.9199 41.3354 36.3297 40.8882 34.8886 39.9937C33.4475 39.0992 32.3046 37.8445 31.4598 36.2295C30.6399 34.5896 30.2299 32.7137 30.2299 30.6017ZM46.4795 30.6763C46.4795 29.4091 46.231 28.3283 45.7341 27.4338C45.2372 26.5145 44.5663 25.8188 43.7215 25.3467C42.8768 24.8498 41.9699 24.6013 41.0009 24.6013C40.0318 24.6013 39.1374 24.8374 38.3174 25.3094C37.4975 25.7815 36.8266 26.4772 36.3049 27.3966C35.8079 28.291 35.5595 29.3594 35.5595 30.6017C35.5595 31.8441 35.8079 32.9373 36.3049 33.8815C36.8266 34.8008 37.4975 35.5089 38.3174 36.0059C39.1622 36.5028 40.0567 36.7513 41.0009 36.7513C41.9699 36.7513 42.8768 36.5152 43.7215 36.0431C44.5663 35.5462 45.2372 34.8505 45.7341 33.956C46.231 33.0367 46.4795 31.9435 46.4795 30.6763ZM75.2791 30.2291C75.2791 30.9744 75.2294 31.6453 75.13 32.2416H60.0358C60.16 33.7324 60.6818 34.9002 61.6011 35.745C62.5204 36.5897 63.6509 37.0121 64.9926 37.0121C66.9307 37.0121 68.3097 36.1798 69.1296 34.5151H74.7573C74.161 36.5028 73.0181 38.1427 71.3285 39.4347C69.6389 40.7018 67.5643 41.3354 65.1045 41.3354C63.1167 41.3354 61.3278 40.9006 59.7376 40.031C58.1723 39.1365 56.9424 37.8818 56.0479 36.2667C55.1783 34.6517 54.7435 32.7882 54.7435 30.6763C54.7435 28.5395 55.1783 26.6636 56.0479 25.0486C56.9175 23.4335 58.135 22.1912 59.7003 21.3216C61.2657 20.452 63.067 20.0171 65.1045 20.0171C67.0673 20.0171 68.819 20.4395 70.3595 21.2843C71.9248 22.1291 73.1299 23.3342 73.9747 24.8995C74.8443 26.44 75.2791 28.2165 75.2791 30.2291ZM69.875 28.7383C69.8501 27.3966 69.3656 26.3282 68.4215 25.5331C67.4773 24.7131 66.3219 24.3032 64.9554 24.3032C63.6634 24.3032 62.5701 24.7007 61.6756 25.4958C60.806 26.266 60.2718 27.3469 60.073 28.7383H69.875ZM86.9515 36.1922L92.1693 20.3526H97.7224L90.0822 41H83.7463L76.1433 20.3526H81.7337L86.9515 36.1922ZM109.374 24.6386H105.759V41H100.467V24.6386H98.1187V20.3526H100.467V19.309C100.467 16.7747 101.187 14.9112 102.628 13.7186C104.069 12.5259 106.244 11.9669 109.151 12.0414V16.4393C107.883 16.4144 107.001 16.6256 106.504 17.0728C106.007 17.5201 105.759 18.3276 105.759 19.4954V20.3526H109.374V24.6386ZM131.763 20.3526L118.98 50.7647H113.426L117.899 40.4782L109.625 20.3526H115.476L120.806 34.776L126.21 20.3526H131.763Z" fill="black"/>
<path d="M136.141 41.2609C135.197 41.2609 134.414 40.9752 133.793 40.4037C133.197 39.8074 132.899 39.0744 132.899 38.2048C132.899 37.3351 133.197 36.6146 133.793 36.0431C134.414 35.4468 135.197 35.1487 136.141 35.1487C137.06 35.1487 137.818 35.4468 138.415 36.0431C139.011 36.6146 139.309 37.3351 139.309 38.2048C139.309 39.0744 139.011 39.8074 138.415 40.4037C137.818 40.9752 137.06 41.2609 136.141 41.2609ZM141.425 30.6017C141.425 28.5146 141.835 26.6636 142.655 25.0486C143.499 23.4335 144.63 22.1912 146.046 21.3216C147.487 20.452 149.09 20.0171 150.854 20.0171C152.394 20.0171 153.736 20.3277 154.879 20.9489C156.047 21.5701 156.979 22.3527 157.674 23.2969V20.3526H162.929V41H157.674V37.9812C157.003 38.9502 156.072 39.7577 154.879 40.4037C153.711 41.0248 152.357 41.3354 150.817 41.3354C149.077 41.3354 147.487 40.8882 146.046 39.9937C144.63 39.0992 143.499 37.8445 142.655 36.2295C141.835 34.5896 141.425 32.7137 141.425 30.6017ZM157.674 30.6763C157.674 29.4091 157.426 28.3283 156.929 27.4338C156.432 26.5145 155.761 25.8188 154.916 25.3467C154.072 24.8498 153.165 24.6013 152.196 24.6013C151.227 24.6013 150.332 24.8374 149.512 25.3094C148.692 25.7815 148.021 26.4772 147.5 27.3966C147.003 28.291 146.754 29.3594 146.754 30.6017C146.754 31.8441 147.003 32.9373 147.5 33.8815C148.021 34.8008 148.692 35.5089 149.512 36.0059C150.357 36.5028 151.251 36.7513 152.196 36.7513C153.165 36.7513 154.072 36.5152 154.916 36.0431C155.761 35.5462 156.432 34.8505 156.929 33.956C157.426 33.0367 157.674 31.9435 157.674 30.6763ZM172.498 23.3342C173.169 22.39 174.088 21.6073 175.256 20.9862C176.448 20.3402 177.802 20.0171 179.318 20.0171C181.082 20.0171 182.672 20.452 184.089 21.3216C185.53 22.1912 186.66 23.4335 187.48 25.0486C188.325 26.6387 188.747 28.4898 188.747 30.6017C188.747 32.7137 188.325 34.5896 187.48 36.2295C186.66 37.8445 185.53 39.0992 184.089 39.9937C182.672 40.8882 181.082 41.3354 179.318 41.3354C177.802 41.3354 176.461 41.0248 175.293 40.4037C174.15 39.7825 173.218 38.9999 172.498 38.0557V50.8392H167.28V20.3526H172.498V23.3342ZM183.418 30.6017C183.418 29.3594 183.157 28.291 182.635 27.3966C182.138 26.4772 181.467 25.7815 180.623 25.3094C179.803 24.8374 178.908 24.6013 177.939 24.6013C176.995 24.6013 176.1 24.8498 175.256 25.3467C174.436 25.8188 173.765 26.5145 173.243 27.4338C172.746 28.3531 172.498 29.434 172.498 30.6763C172.498 31.9186 172.746 32.9994 173.243 33.9188C173.765 34.8381 174.436 35.5462 175.256 36.0431C176.1 36.5152 176.995 36.7513 177.939 36.7513C178.908 36.7513 179.803 36.5028 180.623 36.0059C181.467 35.5089 182.138 34.8008 182.635 33.8815C183.157 32.9622 183.418 31.8689 183.418 30.6017ZM197.011 23.3342C197.682 22.39 198.601 21.6073 199.769 20.9862C200.962 20.3402 202.316 20.0171 203.832 20.0171C205.596 20.0171 207.186 20.452 208.602 21.3216C210.043 22.1912 211.174 23.4335 211.994 25.0486C212.839 26.6387 213.261 28.4898 213.261 30.6017C213.261 32.7137 212.839 34.5896 211.994 36.2295C211.174 37.8445 210.043 39.0992 208.602 39.9937C207.186 40.8882 205.596 41.3354 203.832 41.3354C202.316 41.3354 200.974 41.0248 199.807 40.4037C198.664 39.7825 197.732 38.9999 197.011 38.0557V50.8392H191.794V20.3526H197.011V23.3342ZM207.931 30.6017C207.931 29.3594 207.67 28.291 207.149 27.3966C206.652 26.4772 205.981 25.7815 205.136 25.3094C204.316 24.8374 203.422 24.6013 202.453 24.6013C201.509 24.6013 200.614 24.8498 199.769 25.3467C198.949 25.8188 198.278 26.5145 197.757 27.4338C197.26 28.3531 197.011 29.434 197.011 30.6763C197.011 31.9186 197.26 32.9994 197.757 33.9188C198.278 34.8381 198.949 35.5462 199.769 36.0431C200.614 36.5152 201.509 36.7513 202.453 36.7513C203.422 36.7513 204.316 36.5028 205.136 36.0059C205.981 35.5089 206.652 34.8008 207.149 33.8815C207.67 32.9622 207.931 31.8689 207.931 30.6017Z" fill="url(#paint0_linear_1796_15836)"/>
<path d="M18.389 30.1475C18.389 30.1389 18.3878 30.1304 18.3866 30.1206C18.3304 29.2142 17.904 28.3334 17.1295 27.7287L5.35322 18.3663C3.91538 17.2424 1.83498 17.4953 0.706218 18.9295C-0.422549 20.3649 -0.170898 22.4379 1.26571 23.5618L9.80354 30.3491L1.26571 37.1363C-0.170898 38.259 -0.422549 40.3333 0.706218 41.7674C1.83498 43.2016 3.91538 43.4545 5.35322 42.3306L17.1308 32.967C17.9053 32.3623 18.3316 31.4815 18.3878 30.5751C18.389 30.5665 18.389 30.558 18.3902 30.5482C18.3939 30.481 18.3951 30.415 18.3951 30.3478C18.3951 30.2819 18.3927 30.2147 18.389 30.1475Z" fill="url(#paint1_linear_1796_15836)"/>
<defs>
<linearGradient id="paint0_linear_1796_15836" x1="141.219" y1="30.6094" x2="212.08" y2="33.8929" gradientUnits="userSpaceOnUse">
<stop stop-color="#2585E3"/>
<stop offset="1" stop-color="#16C9CC"/>
</linearGradient>
<linearGradient id="paint1_linear_1796_15836" x1="1.90242e-08" y1="30.1398" x2="18.3551" y2="31.4509" gradientUnits="userSpaceOnUse">
<stop stop-color="#2585E3"/>
<stop offset="1" stop-color="#16C9CC"/>
</linearGradient>
</defs>
</svg>
