<svg width="175" height="53" viewBox="0 0 175 53" fill="none" xmlns="http://www.w3.org/2000/svg">
<path d="M69.3304 13.6791L66.7093 24.2618H68.1837C71.6239 24.2618 74.1139 21.3131 74.1139 17.2831C74.1139 15.0552 73.0655 13.6791 70.772 13.6791H69.3304ZM66.4799 25.1137L64.809 31.8303C64.5796 32.6822 64.4813 33.3374 64.4813 33.8289C64.4813 34.648 64.7435 35.1394 65.4643 35.6964V35.762H56.2904V35.6964C57.863 34.8118 58.3217 33.9927 58.846 31.8303L62.6138 16.7589C62.8431 15.9071 62.9742 15.2518 62.9742 14.7603C62.9742 13.9412 62.6793 13.4498 61.9913 12.8928V12.8273H72.9344C77.1282 12.8273 80.1425 14.3999 80.1425 17.7746C80.1425 22.4271 75.7193 24.655 71.3945 24.7533C74.5726 24.9826 76.0142 26.5226 76.1453 29.0781C76.2108 29.8645 76.2108 31.5027 76.2763 32.0924C76.4074 33.9272 76.7678 34.8118 78.1766 35.6964V35.762H70.9031C70.5427 34.9756 70.4116 34.0582 70.3461 32.977C70.3133 32.0596 70.5754 28.9798 70.5099 27.8659C70.4444 26.1621 69.8218 25.1137 67.7905 25.1137H66.4799ZM85.5613 36.0896C81.8918 36.0896 79.3362 33.7961 79.3362 29.7989C79.3362 24.4912 83.8576 19.1834 89.7551 19.1834C92.6711 19.1834 94.3748 20.6251 94.3748 22.6564C94.3748 26.2932 90.181 27.7676 84.9716 27.9314C84.906 28.5211 84.8405 29.0781 84.8405 29.6351C84.8405 32.42 86.2821 33.6978 88.2479 33.6978C89.9189 33.6978 91.1639 32.977 92.5072 31.3388H92.6711C91.2295 34.4514 88.7722 36.0896 85.5613 36.0896ZM89.6568 19.7732C87.9203 19.7732 85.7251 23.8032 85.0371 27.5055C88.3135 26.883 90.5086 23.8687 90.5086 21.0182C90.5086 20.2319 90.2465 19.7732 89.6568 19.7732ZM110.794 25.9983L109.188 32.6166C108.828 34.091 109.811 34.779 111.547 33.96L111.58 34.0255C110.171 35.5326 108.762 36.0896 107.124 36.0896C104.896 36.0896 103.684 34.648 103.717 32.7149C103.717 32.5183 103.749 32.289 103.815 32.0596C102.603 34.3859 101.063 36.0568 98.4744 36.0568C95.7877 36.0568 94.0512 33.8944 94.0512 30.618C94.0512 24.8188 98.2123 19.2162 103.291 19.2162C105.617 19.2162 106.96 20.4285 107.517 22.2632C108.861 20.5268 110.597 19.6094 112.694 19.249C111.973 21.2148 111.383 23.6393 110.794 25.9983ZM101.128 33.7634C102.472 33.7634 103.782 31.8958 104.437 29.373L105.551 25.0482C105.846 23.9342 106.01 23.0168 106.01 22.3288C106.01 20.9855 105.42 20.2974 104.536 20.2974C102.078 20.2974 99.6866 27.6038 99.6866 31.4044C99.6866 32.9443 100.145 33.7634 101.128 33.7634ZM122.933 19.2162C125.554 19.2162 127.324 20.5595 127.324 22.7547C127.324 24.7861 125.751 26.0966 123.916 26.0966C122.802 26.0966 121.656 25.4413 121.557 24.2291C121.721 24.3274 121.983 24.3601 122.213 24.3601C123.458 24.3601 124.309 22.9841 124.309 21.4442C124.309 20.4612 123.982 19.7732 123.097 19.7732C120.804 19.7732 118.117 25.1465 118.117 29.4058C118.117 32.289 119.46 33.6978 121.361 33.6978C123.097 33.6978 124.211 32.9115 125.358 31.2733H125.554C124.342 34.4186 121.852 36.0896 118.74 36.0896C115.234 36.0896 112.613 33.7634 112.613 29.7334C112.613 24.3274 117.036 19.2162 122.933 19.2162ZM135.757 20.3629L132.939 31.8958C132.873 32.1252 132.841 32.3218 132.841 32.5183C132.841 33.5013 133.496 34.0582 134.413 34.0582C135.101 34.0582 135.986 33.6978 136.805 32.9443L136.838 33.0426C135.429 35.0412 133.725 36.0896 131.301 36.0896C128.712 36.0896 127.369 34.648 127.369 32.5511C127.369 32.1252 127.435 31.6337 127.566 31.175L130.252 20.3629H128.778L128.876 19.937C132.415 19.0852 135.003 17.1521 137.1 13.8429H137.395L135.953 19.5438H139.557L139.197 20.3629H135.757ZM141.917 14.6948C141.917 12.8928 143.326 11.4512 145.194 11.4512C146.93 11.4512 148.11 12.6962 148.11 14.3344C148.11 16.1364 146.701 17.578 144.833 17.578C143.097 17.578 141.917 16.333 141.917 14.6948ZM146.799 19.5438L143.555 32.6166C143.49 32.846 143.457 33.0426 143.457 33.2391C143.457 33.9272 143.818 34.3204 144.506 34.3204C144.866 34.3204 145.292 34.2221 145.783 33.96L145.816 34.0255C144.506 35.5654 142.998 36.0896 141.524 36.0896C139.198 36.0896 138.084 34.7135 138.084 32.9115C138.084 32.4856 138.149 32.0596 138.248 31.6337L140.377 23.0823C140.574 22.1977 140.738 21.6407 140.738 21.2148C140.738 20.494 140.41 20.1008 139.788 19.6094V19.5438H146.799ZM156.411 17.2504L155.985 19.5438H159.065L158.704 20.3629H155.788L152.25 34.7463C150.775 40.7748 147.859 42.97 142.978 43.0355V42.97C144.78 41.9216 145.828 38.9401 147.368 32.3873L150.12 20.3629H148.416L148.515 20.0025L150.382 19.2817L150.677 18.3643C152.119 13.4825 155.297 10.9597 159.491 10.9597C161.981 10.9597 163.783 12.0409 163.783 13.9085C163.783 15.8415 162.21 16.8572 160.506 16.8572C159.425 16.8572 158.639 16.4313 158.377 15.8415C159.622 15.6449 160.572 14.531 160.572 12.8928C160.572 12.0409 160.211 11.4839 159.458 11.4839C158.082 11.4839 157.23 13.0894 156.411 17.2504ZM174.787 19.5438L171.511 32.5183C169.873 39.2022 166.826 43.2649 160.928 43.2649C157.619 43.2649 154.736 41.9543 154.736 39.366C154.736 37.7278 156.112 36.5811 157.848 36.5811C159.126 36.5811 160.109 37.0725 160.732 37.8589C159.716 37.9571 158.93 38.9401 158.93 40.3817C158.93 41.725 159.618 42.7079 160.928 42.7079C163.123 42.7079 164.205 39.923 165.384 35.2377L166.367 31.2405C165.024 33.9272 163.451 35.6964 160.732 35.6964C158.274 35.6964 157.095 34.0582 157.095 31.9941C157.095 31.4699 157.193 30.9129 157.324 30.3887L159.126 23.0823C159.323 22.1977 159.454 21.6407 159.454 21.2148C159.454 20.494 159.159 20.1008 158.536 19.6094V19.5438H165.548L162.73 30.7163C162.632 31.1095 162.566 31.4699 162.566 31.7975C162.566 32.4856 162.861 32.9443 163.582 32.9443C164.925 32.9443 166.301 31.5027 167.088 28.3246L169.25 19.5438H174.787Z" fill="black"/>
<g clip-path="url(#clip0_1784_15196)">
<mask id="mask0_1784_15196" style="mask-type:luminance" maskUnits="userSpaceOnUse" x="0" y="0" width="52" height="53">
<path d="M51.8554 0.427979H0V52.2834H51.8554V0.427979Z" fill="white"/>
</mask>
<g mask="url(#mask0_1784_15196)">
<path d="M51.8554 25.6837C51.8554 22.2485 47.5536 18.9929 40.958 16.9741C42.4799 10.2517 41.8034 4.9034 38.8228 3.1911C38.1358 2.78945 37.3324 2.59919 36.4552 2.59919V4.95625C36.9414 4.95625 37.3324 5.05139 37.6602 5.23107C39.0977 6.05552 39.7212 9.19474 39.2351 13.2324C39.1188 14.226 38.9285 15.2724 38.696 16.3399C36.6244 15.8326 34.3624 15.4415 31.9842 15.1878C30.5573 13.2324 29.0775 11.4567 27.5871 9.90291C31.0329 6.70028 34.2673 4.94569 36.4658 4.94569V2.58862C33.5591 2.58862 29.754 4.66031 25.9065 8.25404C22.0591 4.68144 18.254 2.63091 15.3473 2.63091V4.98797C17.5353 4.98797 20.7802 6.73198 24.226 9.91348C22.7462 11.4672 21.2664 13.2324 19.8606 15.1878C17.4719 15.4415 15.2099 15.8326 13.1383 16.3505C12.8951 15.2935 12.7155 14.2683 12.5886 13.2852C12.0918 9.24759 12.7049 6.10837 14.1318 5.27335C14.4489 5.08308 14.8611 4.99854 15.3473 4.99854V2.64147C14.4595 2.64147 13.6562 2.83174 12.9586 3.23338C9.98845 4.94569 9.32256 10.2834 10.8552 16.9847C4.28077 19.0141 0 22.2591 0 25.6837C0 29.1187 4.3019 32.3744 10.8975 34.393C9.37541 41.1155 10.0519 46.4639 13.0326 48.1762C13.7196 48.5779 14.5229 48.768 15.4108 48.768C18.3174 48.768 22.1226 46.6964 25.97 43.1026C29.8173 46.6752 33.6226 48.7257 36.5291 48.7257C37.4171 48.7257 38.2204 48.5355 38.9179 48.1339C41.8881 46.4216 42.5541 41.0839 41.0213 34.3825C47.5747 32.3638 51.8554 29.1083 51.8554 25.6837ZM38.0936 18.6336C37.7025 19.9971 37.2162 21.4028 36.6665 22.8086C36.2333 21.9631 35.7787 21.1175 35.282 20.2719C34.7958 19.4263 34.2779 18.6019 33.76 17.7985C35.2608 18.0205 36.7089 18.2953 38.0936 18.6336ZM33.2525 29.8905C32.4282 31.3174 31.5825 32.6702 30.7053 33.9281C29.1304 34.0655 27.5344 34.1394 25.9277 34.1394C24.3316 34.1394 22.7356 34.0655 21.1713 33.9387C20.294 32.6807 19.4378 31.3386 18.6134 29.922C17.8101 28.5375 17.0808 27.1318 16.4149 25.7153C17.0702 24.299 17.8101 22.8827 18.6028 21.498C19.4273 20.0711 20.2729 18.7181 21.1502 17.4603C22.725 17.3229 24.321 17.2489 25.9277 17.2489C27.5238 17.2489 29.1198 17.3229 30.6841 17.4498C31.5614 18.7075 32.4176 20.0499 33.2419 21.4663C34.0452 22.8509 34.7747 24.2566 35.4406 25.6731C34.7747 27.0894 34.0452 28.5057 33.2525 29.8905ZM36.6665 28.5163C37.2374 29.9326 37.7235 31.3489 38.1252 32.7231C36.7406 33.0612 35.282 33.3466 33.7704 33.5688C34.2883 32.7549 34.8064 31.9198 35.2926 31.0637C35.7787 30.218 36.2333 29.362 36.6665 28.5163ZM25.9489 39.7942C24.9658 38.7796 23.9829 37.6487 23.0104 36.412C23.9617 36.4543 24.9342 36.4858 25.9171 36.4858C26.9108 36.4858 27.8937 36.4649 28.8556 36.412C27.9043 37.6487 26.9212 38.7796 25.9489 39.7942ZM18.0849 33.5688C16.584 33.3466 15.1359 33.0718 13.7513 32.7337C14.1424 31.3701 14.6286 29.9644 15.1782 28.5587C15.6116 29.4041 16.0661 30.2498 16.5629 31.0953C17.0596 31.9409 17.567 32.7654 18.0849 33.5688ZM25.8959 11.5729C26.879 12.5876 27.8619 13.7186 28.8344 14.9553C27.8831 14.913 26.9108 14.8813 25.9277 14.8813C24.9342 14.8813 23.9511 14.9024 22.9892 14.9553C23.9406 13.7186 24.9236 12.5876 25.8959 11.5729ZM18.0743 17.7985C17.5564 18.6124 17.0385 19.4474 16.5523 20.3036C16.0661 21.1492 15.6116 21.9948 15.1782 22.8403C14.6074 21.424 14.1212 20.0076 13.7196 18.6336C15.1042 18.3059 16.5629 18.0205 18.0743 17.7985ZM8.50869 31.032C4.76698 29.4359 2.3465 27.3431 2.3465 25.6837C2.3465 24.0241 4.76698 21.9208 8.50869 20.3353C9.4177 19.9442 10.4112 19.5954 11.4365 19.2678C12.039 21.3394 12.8317 23.4956 13.8147 25.7047C12.8423 27.9033 12.0601 30.0489 11.4682 32.1101C10.4218 31.7823 9.42826 31.423 8.50869 31.032ZM14.1952 46.1361C12.7577 45.3116 12.1341 42.1724 12.6203 38.1348C12.7366 37.1412 12.9269 36.0948 13.1594 35.0274C15.2311 35.5347 17.493 35.9258 19.8712 36.1795C21.2981 38.1348 22.7779 39.9105 24.2683 41.4644C20.8225 44.6669 17.5881 46.4216 15.3896 46.4216C14.914 46.411 14.5123 46.3159 14.1952 46.1361ZM39.2668 38.0819C39.7636 42.1197 39.1506 45.2589 37.7235 46.0938C37.4065 46.2841 36.9943 46.3686 36.5081 46.3686C34.3201 46.3686 31.0752 44.6248 27.6294 41.4432C29.1092 39.8895 30.5891 38.1243 31.9948 36.1689C34.3836 35.9152 36.6456 35.5241 38.7172 35.0062C38.9603 36.0738 39.1506 37.099 39.2668 38.0819ZM43.3362 31.032C42.4272 31.423 41.4335 31.7718 40.4083 32.0995C39.8059 30.0279 39.0132 27.8716 38.0301 25.6625C39.0026 23.4639 39.7848 21.3183 40.3766 19.2572C41.423 19.5849 42.4166 19.9442 43.3468 20.3353C47.0884 21.9313 49.5089 24.0241 49.5089 25.6837C49.4983 27.3431 47.0778 29.4465 43.3362 31.032Z" fill="url(#paint0_linear_1784_15196)"/>
<path d="M25.9163 30.5141C28.5841 30.5141 30.7466 28.3515 30.7466 25.6838C30.7466 23.0158 28.5841 20.8533 25.9163 20.8533C23.2486 20.8533 21.0859 23.0158 21.0859 25.6838C21.0859 28.3515 23.2486 30.5141 25.9163 30.5141Z" fill="url(#paint1_linear_1784_15196)"/>
</g>
</g>
<defs>
<linearGradient id="paint0_linear_1784_15196" x1="3.18204" y1="5.51925" x2="47.4123" y2="39.567" gradientUnits="userSpaceOnUse">
<stop stop-color="#267BE6"/>
<stop offset="1" stop-color="#15CBCA"/>
</linearGradient>
<linearGradient id="paint1_linear_1784_15196" x1="21.6788" y1="21.4664" x2="30.6064" y2="27.5864" gradientUnits="userSpaceOnUse">
<stop stop-color="#267BE6"/>
<stop offset="1" stop-color="#15CBCA"/>
</linearGradient>
<clipPath id="clip0_1784_15196">
<rect width="51.8554" height="51.8554" fill="white" transform="translate(0 0.427979)"/>
</clipPath>
</defs>
</svg>
